<svg width="80" height="80" viewBox="0 0 80 80" fill="none" xmlns="http://www.w3.org/2000/svg">
<rect width="80" height="80" rx="40" fill="#FFD166" fill-opacity="0.2"/>
<path d="M18 59L40 21L62 59H18V59M40 53C40.5667 53 41.0417 52.8083 41.425 52.425C41.8083 52.0417 42 51.5667 42 51C42 50.4333 41.8083 49.9583 41.425 49.575C41.0417 49.1917 40.5667 49 40 49C39.4333 49 38.9583 49.1917 38.575 49.575C38.1917 49.9583 38 50.4333 38 51C38 51.5667 38.1917 52.0417 38.575 52.425C38.9583 52.8083 39.4333 53 40 53V53M38 47H42V37H38V47V47" fill="#FFD166"/>
</svg>
