<svg width="14" height="8" viewBox="0 0 14 8" fill="none" xmlns="http://www.w3.org/2000/svg">
<path d="M0.292818 0.292818C0.480348 0.105327 0.734669 0 0.999849 0C1.26503 0 1.51935 0.105327 1.70688 0.292818L6.65688 5.24282L11.6069 0.292818C11.7964 0.116388 12.047 0.0203478 12.3059 0.0249052C12.5647 0.0294626 12.8118 0.134262 12.995 0.317253C13.1782 0.500244 13.2832 0.747158 13.2881 1.00604C13.2929 1.26493 13.1972 1.5156 13.0209 1.70532L7.36469 7.36313C7.17716 7.55062 6.92284 7.65595 6.65766 7.65595C6.39248 7.65595 6.13816 7.55062 5.95063 7.36313L0.292818 1.70688C0.105327 1.51935 0 1.26503 0 0.999849C0 0.734669 0.105327 0.480348 0.292818 0.292818Z" fill="#1D7FD8"/>
</svg>
