<svg width="14" height="14" viewBox="0 0 14 14" fill="none" xmlns="http://www.w3.org/2000/svg">
<path d="M1.51172 1.51172H6.01172C6.39844 1.51172 6.75 1.16016 6.75 0.738281C6.75 0.351562 6.39844 0 6.01172 0H1.51172C0.667969 0 0 0.667969 0 1.51172V11.9883C0 12.832 0.667969 13.5 1.51172 13.5H6.01172C6.39844 13.5 6.75 13.1484 6.75 12.7617C6.75 12.3398 6.39844 11.9883 6.01172 11.9883H1.51172V1.51172V1.51172M13.2539 6.50391L11.1445 4.39453C10.8984 4.14844 10.5117 4.32422 10.5117 4.64062V6.01172H5.23828C4.85156 6.01172 4.5 6.32812 4.5 6.75C4.5 7.17188 4.85156 7.48828 5.23828 7.48828H10.5117V8.85938C10.5117 9.17578 10.8984 9.35156 11.1445 9.10547L13.2188 6.99609C13.3945 6.85547 13.3945 6.64453 13.2539 6.50391V6.50391" fill="#6B7280"/>
</svg>
