<svg width="20" height="18" viewBox="0 0 20 18" fill="none" xmlns="http://www.w3.org/2000/svg">
<path d="M19.9688 15.8438V5.20312C19.9688 4.40625 19.5 3.65625 18.7031 3.32812L10.7344 0.140625C10.2656 -0.046875 9.70312 -0.046875 9.23438 0.140625L1.21875 3.32812C0.46875 3.65625 0 4.40625 0 5.20312V15.8438C0 16.9688 0.890625 17.8594 1.96875 17.8594H4.96875V8.85938H15V17.8594H18C19.0781 17.8594 19.9688 16.9688 19.9688 15.8438V15.8438M9 15.8438H6.98438V17.8594H9V15.8438V15.8438M10.9688 12.8438H9V14.8594H10.9688V12.8438V12.8438M12.9844 15.8438H10.9688V17.8594H12.9844V15.8438V15.8438" fill="#4B5563"/>
</svg>
