<svg width="23" height="14" viewBox="0 0 23 14" fill="none" xmlns="http://www.w3.org/2000/svg">
<path d="M15 6C16.6875 6 18 4.64062 18 3C18 1.3125 16.6875 0 15 0C13.3594 0 12 1.3125 12 3C12 4.64062 13.3594 6 15 6V6M7.03125 6C8.67188 6 9.98438 4.64062 9.98438 3C9.98438 1.3125 8.67188 0 7.03125 0C5.34375 0 4.03125 1.3125 4.03125 3C4.03125 4.64062 5.34375 6 7.03125 6V6M7.03125 7.96875C4.6875 7.96875 0 9.14062 0 11.4844V12.9844C0 13.5469 0.46875 13.9688 1.03125 13.9688H13.0312C13.5469 13.9688 14.0156 13.5469 14.0156 12.9844V11.4844C14.0156 9.14062 9.32812 7.96875 7.03125 7.96875V7.96875M15 7.96875C14.7188 7.96875 14.3906 8.01562 14.0625 8.01562C14.0625 8.0625 14.0625 8.0625 14.0625 8.0625C15.2344 8.90625 16.0312 10.0312 16.0312 11.4844V12.9844C16.0312 13.3125 15.9375 13.6875 15.8438 13.9688H21C21.5625 13.9688 22.0312 13.5469 22.0312 12.9844V11.4844C22.0312 9.14062 17.3438 7.96875 15 7.96875V7.96875" fill="#4B5563"/>
</svg>
