<svg width="23" height="17" viewBox="0 0 23 17" fill="none" xmlns="http://www.w3.org/2000/svg">
<path d="M22.0312 4.03125V14.0156C22.0312 15.0938 21.0938 16.0312 20.0156 16.0312H4.03125C3.46875 16.0312 3 15.5625 3 15C3 14.4844 3.46875 14.0156 4.03125 14.0156H20.0156V4.03125C20.0156 3.46875 20.4844 3 21 3C21.5625 3 22.0312 3.46875 22.0312 4.03125V4.03125M3 12C1.35938 12 0 10.6875 0 9V3C0 1.35938 1.35938 0 3 0H15C16.6875 0 18 1.35938 18 3V10.0312C18 11.1094 17.1094 12 16.0312 12H3V12M6 6C6 7.6875 7.35938 9 9 9C10.6875 9 12 7.6875 12 6C12 4.35938 10.6875 3 9 3C7.35938 3 6 4.35938 6 6V6" fill="#4B5563"/>
</svg>
