<svg width="23" height="17" viewBox="0 0 23 17" fill="none" xmlns="http://www.w3.org/2000/svg">
<path d="M18.5156 4.03125H16.0312V2.01562C16.0312 0.9375 15.0938 0 14.0156 0H2.01562C0.9375 0 0 0.9375 0 2.01562V11.0156C0 12.0938 0.9375 13.0312 2.01562 13.0312C2.01562 14.6719 3.375 16.0312 5.01562 16.0312C6.65625 16.0312 8.01562 14.6719 8.01562 13.0312H14.0156C14.0156 14.6719 15.375 16.0312 17.0156 16.0312C18.6562 16.0312 20.0156 14.6719 20.0156 13.0312H21C21.5625 13.0312 22.0312 12.5625 22.0312 12V8.67188C22.0312 8.25 21.8906 7.82812 21.6094 7.5L19.3125 4.40625C19.125 4.17188 18.8438 4.03125 18.5156 4.03125V4.03125M5.01562 14.0156C4.45312 14.0156 4.03125 13.5469 4.03125 13.0312C4.03125 12.4688 4.45312 12 5.01562 12C5.57812 12 6 12.4688 6 13.0312C6 13.5469 5.57812 14.0156 5.01562 14.0156V14.0156M18.5156 5.53125L20.4844 8.01562H16.0312V5.53125H18.5156V5.53125M17.0156 14.0156C16.4531 14.0156 16.0312 13.5469 16.0312 13.0312C16.0312 12.4688 16.4531 12 17.0156 12C17.5781 12 18 12.4688 18 13.0312C18 13.5469 17.5781 14.0156 17.0156 14.0156V14.0156" fill="#4B5563"/>
</svg>
