<svg width="18" height="18" viewBox="0 0 18 18" fill="none" xmlns="http://www.w3.org/2000/svg">
<path d="M0.984375 9.98438H6.98438C7.54688 9.98438 8.01562 9.5625 8.01562 9V0.984375C8.01562 0.46875 7.54688 0 6.98438 0H0.984375C0.46875 0 0 0.46875 0 0.984375V9C0 9.5625 0.46875 9.98438 0.984375 9.98438V9.98438M0.984375 18H6.98438C7.54688 18 8.01562 17.5312 8.01562 17.0156V12.9844C8.01562 12.4688 7.54688 12 6.98438 12H0.984375C0.46875 12 0 12.4688 0 12.9844V17.0156C0 17.5312 0.46875 18 0.984375 18V18M11.0156 18H17.0156C17.5312 18 18 17.5312 18 17.0156V9C18 8.4375 17.5312 8.01562 17.0156 8.01562H11.0156C10.4531 8.01562 9.98438 8.4375 9.98438 9V17.0156C9.98438 17.5312 10.4531 18 11.0156 18V18M9.98438 0.984375V5.01562C9.98438 5.53125 10.4531 6 11.0156 6H17.0156C17.5312 6 18 5.53125 18 5.01562V0.984375C18 0.46875 17.5312 0 17.0156 0H11.0156C10.4531 0 9.98438 0.46875 9.98438 0.984375V0.984375" fill="#1D7AE2"/>
</svg>
