<svg width="10" height="10" viewBox="0 0 10 10" fill="none" xmlns="http://www.w3.org/2000/svg">
<path d="M1.17578 9.35156C1.80469 9.35156 2.35156 8.80469 2.35156 8.17578V4.10156C2.35156 3.44531 1.80469 2.92578 1.17578 2.92578C0.546875 2.92578 0 3.44531 0 4.10156V8.17578C0 8.80469 0.546875 9.35156 1.17578 9.35156V9.35156M7 6.42578V8.17578C7 8.80469 7.54688 9.35156 8.17578 9.35156C8.80469 9.35156 9.35156 8.80469 9.35156 8.17578V6.42578C9.35156 5.79688 8.80469 5.25 8.17578 5.25C7.54688 5.25 7 5.79688 7 6.42578V6.42578M4.67578 9.35156C5.30469 9.35156 5.85156 8.80469 5.85156 8.17578V1.17578C5.85156 0.546875 5.30469 0 4.67578 0C4.04688 0 3.5 0.546875 3.5 1.17578V8.17578C3.5 8.80469 4.04688 9.35156 4.67578 9.35156V9.35156" fill="#4B5563"/>
</svg>
