<svg width="20" height="20" viewBox="0 0 20 20" fill="none" xmlns="http://www.w3.org/2000/svg">
<path d="M6 15.9844C4.92188 15.9844 4.03125 16.875 4.03125 18C4.03125 19.0781 4.92188 19.9688 6 19.9688C7.125 19.9688 8.01562 19.0781 8.01562 18C8.01562 16.875 7.125 15.9844 6 15.9844V15.9844M0 0.984375C0 1.54688 0.46875 1.96875 1.03125 1.96875H2.01562L5.625 9.5625L4.26562 12C3.51562 13.3594 4.5 15 6 15H17.0156C17.5781 15 18 14.5312 18 13.9688C18 13.4531 17.5781 12.9844 17.0156 12.9844H6L7.125 10.9688H14.5781C15.3281 10.9688 15.9844 10.5938 16.3125 9.9375L19.875 3.46875C20.25 2.8125 19.7812 1.96875 19.0312 1.96875H4.21875L3.5625 0.5625C3.375 0.1875 3.04688 0 2.67188 0H1.03125C0.46875 0 0 0.421875 0 0.984375V0.984375M16.0312 15.9844C14.9062 15.9844 14.0156 16.875 14.0156 18C14.0156 19.0781 14.9062 19.9688 16.0312 19.9688C17.1094 19.9688 18 19.0781 18 18C18 16.875 17.1094 15.9844 16.0312 15.9844V15.9844" fill="#4B5563"/>
</svg>
