<svg width="20" height="20" viewBox="0 0 20 20" fill="none" xmlns="http://www.w3.org/2000/svg">
<path d="M18 0H1.96875C0.984375 0 0 0.890625 0 1.96875V5.01562C0 5.71875 0.421875 6.32812 0.984375 6.70312V18C0.984375 19.0781 2.0625 19.9688 3 19.9688H16.9688C17.9062 19.9688 18.9844 19.0781 18.9844 18V6.70312C19.5469 6.32812 19.9688 5.71875 19.9688 5.01562V1.96875C19.9688 0.890625 18.9844 0 18 0V0M12 12H7.96875C7.45312 12 6.98438 11.5312 6.98438 10.9688C6.98438 10.4531 7.45312 9.98438 7.96875 9.98438H12C12.5156 9.98438 12.9844 10.4531 12.9844 10.9688C12.9844 11.5312 12.5156 12 12 12V12M18 4.96875H1.96875V1.96875H18V4.96875V4.96875" fill="#4B5563"/>
</svg>
