<svg width="17" height="20" viewBox="0 0 17 20" fill="none" xmlns="http://www.w3.org/2000/svg">
<path d="M14.0156 3.98438H12C12 1.78125 10.2188 0 8.01562 0C5.8125 0 4.03125 1.78125 4.03125 3.98438H2.01562C0.9375 3.98438 0 4.875 0 6V18C0 19.0781 0.9375 19.9688 2.01562 19.9688H14.0156C15.0938 19.9688 16.0312 19.0781 16.0312 18V6C16.0312 4.875 15.0938 3.98438 14.0156 3.98438V3.98438M6 7.96875C6 8.53125 5.57812 9 5.01562 9C4.45312 9 4.03125 8.53125 4.03125 7.96875V6H6V7.96875V7.96875M8.01562 1.96875C9.09375 1.96875 10.0312 2.90625 10.0312 3.98438H6C6 2.90625 6.9375 1.96875 8.01562 1.96875V1.96875M12 7.96875C12 8.53125 11.5781 9 11.0156 9C10.4531 9 10.0312 8.53125 10.0312 7.96875V6H12V7.96875V7.96875" fill="#4B5563"/>
</svg>
