<svg width="12" height="12" viewBox="0 0 12 12" fill="none" xmlns="http://www.w3.org/2000/svg">
<path d="M10.0537 5.82422C10.0537 5.6875 10.0537 5.55078 10.0264 5.41406L11.1201 4.59375C11.3662 4.42969 11.4209 4.10156 11.2842 3.85547L10.1904 1.96875C10.0264 1.69531 9.72559 1.61328 9.45215 1.72266L8.19434 2.24219C7.97559 2.10547 7.75684 1.96875 7.51074 1.85938L7.34668 0.492188C7.31934 0.21875 7.07324 0 6.77246 0H4.58496C4.28418 0 4.03809 0.21875 4.01074 0.492188L3.84668 1.85938C3.60059 1.96875 3.38184 2.10547 3.16309 2.24219L1.90527 1.72266C1.63184 1.61328 1.33105 1.69531 1.16699 1.96875L0.0732422 3.85547C-0.0634766 4.10156 -0.00878906 4.42969 0.237305 4.62109L1.33105 5.44141C1.30371 5.55078 1.30371 5.6875 1.30371 5.82422C1.30371 5.96094 1.30371 6.09766 1.33105 6.23438L0.237305 7.05469C-0.00878906 7.21875 -0.0634766 7.54688 0.0732422 7.79297L1.16699 9.67969C1.33105 9.95312 1.63184 10.0352 1.90527 9.92578L3.16309 9.40625C3.38184 9.54297 3.60059 9.67969 3.84668 9.78906L4.01074 11.1562C4.03809 11.4297 4.28418 11.6484 4.58496 11.6484H6.77246C7.0459 11.6484 7.31934 11.4297 7.34668 11.1562L7.51074 9.78906C7.75684 9.67969 7.97559 9.54297 8.19434 9.40625L9.45215 9.92578C9.72559 10.0352 10.0264 9.95312 10.1631 9.67969L11.2568 7.79297C11.4209 7.54688 11.3389 7.21875 11.1201 7.05469L10.0264 6.23438C10.0537 6.09766 10.0537 5.96094 10.0537 5.82422V5.82422M5.70605 7.875C4.58496 7.875 3.65527 6.94531 3.65527 5.82422C3.65527 4.70312 4.58496 3.77344 5.70605 3.77344C6.82715 3.77344 7.75684 4.70312 7.75684 5.82422C7.75684 6.94531 6.82715 7.875 5.70605 7.875V7.875" fill="#4B5563"/>
</svg>
