<svg width="80" height="80" viewBox="0 0 80 80" fill="none" xmlns="http://www.w3.org/2000/svg">
<rect width="80" height="80" rx="40" fill="#6366F1" fill-opacity="0.1"/>
<path d="M39.712 53.8249C40.672 53.8249 41.4977 53.4793 42.1889 52.788C42.8802 52.0968 43.2258 51.2684 43.2258 50.3029C43.2258 49.3375 42.8802 48.5214 42.1889 47.8548C41.4977 47.1882 40.672 46.8548 39.712 46.8548C38.7519 46.8548 37.9263 47.1882 37.235 47.8548C36.5438 48.5214 36.1982 49.3375 36.1982 50.3029C36.1982 51.2684 36.5438 52.0968 37.235 52.788C37.9263 53.4793 38.7519 53.8249 39.712 53.8249ZM37.0046 44.9539H42.4194C42.4194 43.8402 42.573 42.8994 42.8802 42.1313C43.1874 41.3633 43.9171 40.4224 45.0691 39.3088C45.9524 38.4639 46.6724 37.5604 47.2293 36.5982C47.7861 35.636 48.0645 34.4794 48.0645 33.1282C48.0645 30.8354 47.3157 29.0841 45.818 27.8744C44.3203 26.6647 42.4962 26.0599 40.3456 26.0599C38.0031 26.0599 36.0541 26.732 34.4988 28.076C32.9435 29.4201 31.8587 31.0138 31.2442 32.8571L36.3134 34.7581C36.5822 33.99 37.0046 33.222 37.5806 32.4539C38.1567 31.6859 38.9823 31.3018 40.0576 31.3018C40.8257 31.3018 41.4209 31.5419 41.8433 32.0219C42.2657 32.5019 42.477 33.03 42.477 33.606C42.477 34.182 42.2753 34.7773 41.8721 35.3917C41.4689 36.0061 41.0561 36.4862 40.6336 36.8318C39.0975 38.2527 38.1087 39.4144 37.6671 40.3168C37.2254 41.2193 37.0046 42.765 37.0046 44.9539ZM40 65C36.5054 65 33.2414 64.3456 30.2081 63.0367C27.1748 61.7278 24.5362 59.9514 22.2924 57.7076C20.0486 55.4638 18.2722 52.8252 16.9633 49.7919C15.6544 46.7586 15 43.4946 15 40C15 36.5054 15.6544 33.2414 16.9633 30.2081C18.2722 27.1748 20.0486 24.5362 22.2924 22.2924C24.5362 20.0486 27.1748 18.2722 30.2081 16.9633C33.2414 15.6544 36.5054 15 40 15C43.4946 15 46.7586 15.6544 49.7919 16.9633C52.8252 18.2722 55.4638 20.0486 57.7076 22.2924C59.9514 24.5362 61.7278 27.1748 63.0367 30.2081C64.3456 33.2414 65 36.5054 65 40C65 43.4946 64.3456 46.7586 63.0367 49.7919C61.7278 52.8252 59.9514 55.4638 57.7076 57.7076C55.4638 59.9514 52.8252 61.7278 49.7919 63.0367C46.7586 64.3456 43.4946 65 40 65ZM40 57.7419C44.9923 57.7419 49.1974 56.033 52.6152 52.6152C56.033 49.1974 57.7419 44.9923 57.7419 40C57.7419 35.0077 56.033 30.8026 52.6152 27.3848C49.1974 23.967 44.9923 22.2581 40 22.2581C35.0077 22.2581 30.8026 23.967 27.3848 27.3848C23.967 30.8026 22.2581 35.0077 22.2581 40C22.2581 44.9923 23.967 49.1974 27.3848 52.6152C30.8026 56.033 35.0077 57.7419 40 57.7419Z" fill="#6366F1"/>
</svg>
