<svg width="15" height="15" viewBox="0 0 15 15" fill="none" xmlns="http://www.w3.org/2000/svg">
<path d="M12.9262 7.48828C12.9262 7.3125 12.9262 7.13672 12.891 6.96094L14.2973 5.90625C14.6137 5.69531 14.684 5.27344 14.5082 4.95703L13.102 2.53125C12.891 2.17969 12.5043 2.07422 12.1528 2.21484L10.5356 2.88281C10.2543 2.70703 9.97307 2.53125 9.65667 2.39062L9.44573 0.632812C9.41057 0.28125 9.09417 0 8.70745 0H5.89495C5.50823 0 5.19182 0.28125 5.15667 0.632812L4.94573 2.39062C4.62932 2.53125 4.34807 2.70703 4.06682 2.88281L2.44964 2.21484C2.09807 2.07422 1.71136 2.17969 1.50042 2.53125L0.0941685 4.95703C-0.0816127 5.27344 -0.0113002 5.69531 0.305106 5.94141L1.71136 6.99609C1.6762 7.13672 1.6762 7.3125 1.6762 7.48828C1.6762 7.66406 1.6762 7.83984 1.71136 8.01562L0.305106 9.07031C-0.0113002 9.28125 -0.0816127 9.70312 0.0941685 10.0195L1.50042 12.4453C1.71136 12.7969 2.09807 12.9023 2.44964 12.7617L4.06682 12.0938C4.34807 12.2695 4.62932 12.4453 4.94573 12.5859L5.15667 14.3438C5.19182 14.6953 5.50823 14.9766 5.89495 14.9766H8.70745C9.05901 14.9766 9.41057 14.6953 9.44573 14.3438L9.65667 12.5859C9.97307 12.4453 10.2543 12.2695 10.5356 12.0938L12.1528 12.7617C12.5043 12.9023 12.891 12.7969 13.0668 12.4453L14.4731 10.0195C14.684 9.70312 14.5785 9.28125 14.2973 9.07031L12.891 8.01562C12.9262 7.83984 12.9262 7.66406 12.9262 7.48828V7.48828M7.33636 10.125C5.89495 10.125 4.69964 8.92969 4.69964 7.48828C4.69964 6.04688 5.89495 4.85156 7.33636 4.85156C8.77776 4.85156 9.97307 6.04688 9.97307 7.48828C9.97307 8.92969 8.77776 10.125 7.33636 10.125V10.125" fill="#6B7280"/>
</svg>
