<svg width="96" height="96" viewBox="0 0 96 96" fill="none" xmlns="http://www.w3.org/2000/svg">
<rect width="96" height="96" rx="48" fill="#06D6A0" fill-opacity="0.1"/>
<path d="M44.5 59.5L62.125 41.875L58.625 38.375L44.5 52.5L37.375 45.375L33.875 48.875L44.5 59.5V59.5M48 73C44.5417 73 41.2917 72.3438 38.25 71.0312C35.2083 69.7188 32.5625 67.9375 30.3125 65.6875C28.0625 63.4375 26.2812 60.7917 24.9688 57.75C23.6562 54.7083 23 51.4583 23 48C23 44.5417 23.6562 41.2917 24.9688 38.25C26.2812 35.2083 28.0625 32.5625 30.3125 30.3125C32.5625 28.0625 35.2083 26.2812 38.25 24.9688C41.2917 23.6562 44.5417 23 48 23C51.4583 23 54.7083 23.6562 57.75 24.9688C60.7917 26.2812 63.4375 28.0625 65.6875 30.3125C67.9375 32.5625 69.7188 35.2083 71.0312 38.25C72.3438 41.2917 73 44.5417 73 48C73 51.4583 72.3438 54.7083 71.0312 57.75C69.7188 60.7917 67.9375 63.4375 65.6875 65.6875C63.4375 67.9375 60.7917 69.7188 57.75 71.0312C54.7083 72.3438 51.4583 73 48 73V73M48 68C53.5833 68 58.3125 66.0625 62.1875 62.1875C66.0625 58.3125 68 53.5833 68 48C68 42.4167 66.0625 37.6875 62.1875 33.8125C58.3125 29.9375 53.5833 28 48 28C42.4167 28 37.6875 29.9375 33.8125 33.8125C29.9375 37.6875 28 42.4167 28 48C28 53.5833 29.9375 58.3125 33.8125 62.1875C37.6875 66.0625 42.4167 68 48 68V68M48 48V48V48V48V48V48V48V48V48V48" fill="#06D6A0"/>
</svg>
