<svg width="12" height="12" viewBox="0 0 12 12" fill="none" xmlns="http://www.w3.org/2000/svg">
<path d="M5.82422 0C2.59766 0 0 2.59766 0 5.82422C0 9.05078 2.59766 11.6484 5.82422 11.6484C9.05078 11.6484 11.6484 9.05078 11.6484 5.82422C11.6484 2.59766 9.05078 0 5.82422 0V0M5.82422 2.32422C6.94531 2.32422 7.875 3.22656 7.875 4.375C7.875 5.49609 6.94531 6.39844 5.82422 6.39844C4.70312 6.39844 3.77344 5.49609 3.77344 4.375C3.77344 3.22656 4.70312 2.32422 5.82422 2.32422V2.32422M5.82422 10.5C4.64844 10.5 3.22656 10.0078 2.24219 8.80469C3.22656 8.03906 4.48438 7.57422 5.82422 7.57422C7.16406 7.57422 8.42188 8.03906 9.40625 8.80469C8.42188 10.0078 7 10.5 5.82422 10.5V10.5" fill="#6B7280"/>
</svg>
