<svg width="59" height="50" viewBox="0 0 59 50" fill="none" xmlns="http://www.w3.org/2000/svg">
<path d="M26.9312 49.5453C25.5667 50.0713 24.5251 50.1859 23.1345 49.6495L2.65614 41.7331C1.10412 41.129 0 39.9519 0 37.9728L0.0104163 12.1197C0.0104163 10.6614 0.593726 8.96879 1.94784 8.45319L23.8011 0.172267C25.1188 -0.181885 26.301 0.0472723 27.5093 0.521212L34.9622 3.44297L26.8114 6.52618L9.9996 12.7395L9.97877 21.4995L16.4785 24.1088L16.5306 15.6196L34.4153 8.94796L41.8369 6.2189L47.0346 8.18237C48.6179 8.7813 49.7689 9.98958 49.7689 11.927V21.6818C48.9928 20.9527 47.9564 20.4683 46.795 20.3798H46.7169L46.6388 20.3746H43.2379L43.1649 20.3694H43.0972C40.6286 20.536 38.6808 22.5047 38.6599 24.8588L38.6235 29.6971H34.4882C31.7539 29.6919 29.6447 31.5616 29.4728 34.1345V34.2074V34.2803V37.9312L29.478 38.0666L29.4936 38.1968C29.7957 40.5248 31.7123 42.2956 33.9466 42.3164L38.6235 42.3581L38.6391 45.0559L26.926 49.5609L26.9312 49.5453ZM57.4925 39.3322C57.0238 39.8582 56.4248 40.254 55.6645 40.254L49.1803 40.2696V47.6131C48.8783 48.837 48.0918 49.9359 46.8158 49.9515L43.1597 49.9932C41.889 49.8578 40.7484 48.8422 40.738 47.4829L40.7015 40.2748L33.9726 40.2175C32.6758 40.2071 31.7175 39.0874 31.5612 37.9104V34.2595C31.5717 34.0563 31.6029 33.8688 31.6498 33.6918C31.6654 33.6345 31.6967 33.5824 31.7175 33.5251C31.7592 33.4105 31.7956 33.296 31.8477 33.1918C31.8789 33.1293 31.9258 33.072 31.9675 33.0095C32.0196 32.9262 32.0716 32.8376 32.1341 32.7595C32.1862 32.697 32.2487 32.6501 32.306 32.5929C32.3685 32.5304 32.4258 32.4574 32.4987 32.4054C32.5612 32.3533 32.6341 32.3168 32.7018 32.2752C32.7747 32.2231 32.8477 32.171 32.931 32.1241C33.0039 32.0877 33.082 32.0616 33.1549 32.0304C33.2383 31.9939 33.3216 31.9523 33.4101 31.921C33.4935 31.895 33.5768 31.8793 33.6653 31.8637C33.7591 31.8429 33.8424 31.8116 33.9414 31.8012C34.0299 31.7856 34.1184 31.7856 34.2122 31.7804C34.3059 31.7752 34.4049 31.7596 34.4986 31.7596H34.5038L40.7067 31.77L40.7588 24.8692C40.7692 23.5099 41.9983 22.5255 43.2535 22.4422H46.6544C47.8783 22.5412 49.1074 23.463 49.1178 24.8067L49.1803 31.77L55.7634 31.8116C57.0082 31.8168 57.8519 32.7856 58.1435 33.9053C58.081 35.1865 58.555 38.6082 57.4977 39.3426L57.4925 39.3322Z" fill="#1D7FD8"/>
</svg>
