<svg width="73" height="50" viewBox="0 0 73 50" fill="none" xmlns="http://www.w3.org/2000/svg">
<path d="M56.5483 4.97325C61.0277 4.97325 64.6633 8.60886 64.6633 13.0882C64.6633 17.5676 61.0277 21.2032 56.5483 21.2032C52.069 21.2032 48.4334 17.5676 48.4334 13.0882C48.4334 8.60886 52.069 4.97325 56.5483 4.97325ZM36.0105 0C41.8549 0 46.595 4.74002 46.595 10.5844C46.595 16.4289 41.8549 21.1689 36.0105 21.1689C30.1661 21.1689 25.4261 16.4289 25.4261 10.5844C25.4261 4.74002 30.1661 0 36.0105 0ZM15.4796 4.96639C19.9589 4.96639 23.5946 8.602 23.5946 13.0814C23.5946 17.5607 19.9589 21.1963 15.4796 21.1963C11.0002 21.1963 7.36462 17.5607 7.36462 13.0814C7.36462 8.602 11.0002 4.96639 15.4796 4.96639ZM1.59565 39.1206C0.47067 38.6198 -0.13298 37.632 0.0247924 36.3973C0.552986 32.3021 2.76179 28.6802 6.12302 26.2587C11.1992 22.5957 18.1823 22.2321 23.5946 25.4562C21.8659 26.6566 20.4185 27.7816 19.1152 29.2221C16.1724 32.4736 14.3546 36.4522 13.9087 40.8972C10.3623 40.7738 4.6825 40.4994 1.59565 39.1275V39.1206ZM45.9159 46.0145C39.3718 46.7142 23.5054 46.8926 17.8324 44.1967C16.5703 43.5999 15.9323 42.4475 16.0764 41.0619C16.5497 36.5002 18.7654 32.3501 22.1883 29.2907C29.1852 23.0416 40.1332 22.3693 47.9326 27.8022C46.6087 28.6596 45.9502 29.963 45.957 31.4378V34.1542L43.0554 34.1611C40.922 34.1611 38.9739 35.7868 38.9533 37.9476L38.9259 40.8561C38.9053 43.2775 40.8603 45.0885 43.3092 45.0679L45.9296 45.0473C45.9707 45.356 45.9707 45.6578 45.9296 46.0008L45.9159 46.0145ZM62.0429 40.8698C62.0703 41.9948 61.1923 42.9689 60.0193 42.9757L54.9775 42.9894V47.901C54.9775 48.9642 54.2366 49.8422 53.1597 50H49.9768C48.9615 49.8902 48.0972 49.0671 48.0972 48.0107L48.0767 42.9826L42.9594 42.962C41.8687 42.962 41.0798 42.0565 41.0249 41.0344L41.0112 38.366C40.9838 37.2411 41.8344 36.2601 43.0005 36.2464L48.0492 36.2121V31.5475C48.0355 30.3334 48.742 29.3867 49.9974 29.2633H53.0979C54.1886 29.3867 54.9912 30.2236 54.9912 31.3417V36.219L60.0124 36.2327C61.1786 36.2327 62.0223 37.2068 62.0566 38.3043V40.8629L62.0429 40.8698ZM71.029 38.7502C69.3416 39.882 66.2479 40.2593 64.1557 40.4788L64.1077 38.0025C64.0665 35.9652 62.331 34.2365 60.3211 34.2022L57.104 34.1542L57.0765 31.2457C57.0559 28.9614 55.1558 27.226 52.8921 27.2465C52.2062 27.2465 51.4859 27.2465 50.8617 27.2191L48.3922 25.4287C52.5903 23.0073 57.7213 22.5888 62.2007 24.2626C67.3934 26.197 71.1594 30.6969 71.9757 36.1504C72.1266 37.1725 71.8865 38.1602 71.0153 38.7433L71.029 38.7502Z" fill="#1D7FD8"/>
</svg>
