<svg width="75" height="50" viewBox="0 0 75 50" fill="none" xmlns="http://www.w3.org/2000/svg">
<path d="M74.3342 4.7663C74.3342 2.20257 72.0255 1.74805e-05 69.5042 1.74805e-05H4.78755C2.39379 -0.00706467 1.9755e-05 2.13883 1.9755e-05 4.6105V45.1912C-0.00706239 47.7054 1.89095 49.5326 4.26347 50H69.0297C71.9476 50.0071 74.3555 47.9887 74.3555 45.0425L74.3342 4.7663ZM38.2578 14.6813L60.9277 14.6671C62.245 14.6671 63.0949 15.9915 63.0453 17.0963C62.9957 18.2436 62.1388 19.4618 60.779 19.4618H38.4348C37.2096 19.4618 36.4023 18.2365 36.3314 17.2096C36.2606 16.1898 37.0042 14.6884 38.2578 14.6813ZM38.4136 24.4759L60.4745 24.4334C61.8838 24.4334 62.9674 25.3541 63.0595 26.728C63.1374 27.9533 62.2096 29.2776 60.7365 29.2776H38.449C37.2025 29.2776 36.3598 28.0028 36.3173 26.9476C36.2748 25.8215 37.1246 24.4759 38.4136 24.4759ZM21.4448 9.58925C25.8357 9.58925 29.3909 13.1445 29.3909 17.5354C29.3909 21.9263 25.8428 25.4816 21.4448 25.4816C17.0467 25.4816 13.4986 21.9263 13.4986 17.5354C13.4986 13.1445 17.0538 9.58925 21.4448 9.58925ZM30.8428 40.3399L11.9193 40.3612C10.8853 40.3612 10.2691 39.4688 10.3329 38.5552C10.5524 35.1416 12.3159 32.0609 14.8938 30.1983C17.8612 28.0453 21.5014 27.5 24.9079 28.6048C29.2705 30.0212 32.2025 33.9943 32.5 38.534C32.5637 39.4688 31.9334 40.347 30.8499 40.347L30.8428 40.3399ZM62.677 37.9674C62.3583 38.364 61.7068 39.051 61.0835 39.051H38.4277C37.1388 39.051 36.3244 37.762 36.3173 36.6785C36.3173 35.5807 37.1671 34.2989 38.4065 34.2989L47.8966 34.2776L54.143 34.2989L61.2748 34.3626C62.0963 34.3626 62.6629 35.1983 62.8753 35.7011C63.1799 36.4093 63.1869 37.3442 62.677 37.9674Z" fill="#1D7FD8"/>
</svg>
