<svg width="70" height="50" viewBox="0 0 70 50" fill="none" xmlns="http://www.w3.org/2000/svg">
<path d="M69.6321 8.69019C69.4211 7.80559 68.5214 6.95115 67.486 6.95115L46.5873 6.97628C45.2705 6.97628 44.3808 8.20265 44.3859 9.37374C44.3909 10.4694 45.3258 11.6757 46.5672 11.6757L67.0688 11.6958C67.7021 11.6958 68.2299 11.6003 68.7023 11.2736C68.8531 11.148 69.1245 10.8615 69.1245 10.8615C69.6925 10.2835 69.8282 9.52453 69.6321 8.69019ZM11.9572 45.7077C11.6356 45.7077 11.3642 45.763 11.0626 45.7378C9.4693 45.6021 8.03183 45.0342 6.78032 43.9887C5.68965 43.084 4.46327 41.0283 4.46327 39.6059L4.44819 6.17712C1.92004 6.31283 0.00508616 8.82589 6.00196e-05 11.1078V44.8583C-0.00496612 45.3458 0.306654 46.6526 0.568013 47.1753C1.40235 48.849 3.17155 50 5.11164 50L28.0107 49.9799C30.0061 49.9749 32.494 47.8187 32.5795 45.6775L11.9572 45.7077ZM38.445 4.68938C38.445 2.25673 36.138 0.0100523 33.7506 0.0100523L10.9369 0C8.36355 0 6.06158 2.62364 6.20231 4.8854C6.28776 6.28267 6.15205 7.61459 6.14702 9.03197L6.11687 38.46L6.20734 39.4099C6.29781 40.3649 6.62451 41.3048 7.24272 42.0285C8.18764 43.1343 9.4492 44.0088 11.0525 44.0139L33.0318 44.039C34.7055 44.039 36.1179 43.5263 37.2236 42.2045C37.8368 41.4757 38.4701 40.385 38.4701 39.2642L38.445 4.68938ZM11.525 12.4698C11.6607 12.3442 12.0176 12.1381 12.2488 12.1381H32.1673C32.9112 12.1381 33.3937 12.701 33.4289 13.3293C33.4641 13.8922 33.0821 14.6713 32.3432 14.6713L12.1332 14.6813C11.9623 14.6813 11.6305 14.4753 11.535 14.3848C11.0726 13.9375 10.9822 12.9524 11.525 12.4698ZM33.2731 19.6321C32.9816 20.1347 32.3533 20.2955 31.7904 20.2302C31.4034 20.19 31.0264 20.3056 30.6344 20.3056L18.6521 20.2955L13.8571 20.2754C13.3042 20.2754 12.7162 20.381 12.2035 20.2503C11.4848 20.0694 11.0978 19.5215 11.1581 18.8229C11.2033 18.2248 11.7009 17.6719 12.4347 17.6719H32.2427C32.7102 17.6669 33.1072 18.0388 33.263 18.3152C33.4842 18.6872 33.4842 19.2602 33.2731 19.6321ZM23.1404 31.353C21.7532 31.4988 20.3961 31.3932 18.9989 31.3932H12.681C11.9673 31.3932 11.2888 31.1118 11.1631 30.3579C11.0676 29.7899 11.3642 28.845 12.1583 28.845L22.9594 28.8098C23.6782 28.8048 24.1506 29.3074 24.2562 29.9809C24.3366 30.4986 23.8893 31.2776 23.1404 31.353ZM32.4639 25.7841L12.2538 25.7941C11.535 25.7941 11.1581 25.0754 11.1531 24.5175C11.148 23.9093 11.5954 23.2459 12.3342 23.2459H32.2628C32.9263 23.2509 33.3786 23.8339 33.4339 24.3567C33.4942 24.8693 33.1927 25.7841 32.4639 25.7841ZM69.5417 35.8162C69.2351 35.1277 68.4962 34.4089 67.5714 34.4089H46.7783C45.4916 34.4089 44.5266 35.2935 44.3859 36.54C44.2753 37.5 45.0443 39.0681 46.336 39.0732L67.4709 39.1285C68.1595 39.1335 68.6269 38.7817 69.1195 38.3042C69.7578 37.6809 69.9136 36.6456 69.5417 35.8162ZM69.6321 27.0004C69.406 26.0605 68.5465 25.2563 67.4709 25.2563H46.9794C45.6122 25.2513 44.5618 26.0153 44.4009 27.3924C44.2753 28.4731 45.1448 29.9558 46.4818 29.9558L67.481 29.996C67.9082 29.996 68.3153 29.7899 68.6671 29.5688C69.5869 29.0008 69.8684 28.0157 69.6321 27.0004ZM69.2351 17.0587C68.6973 16.4103 68.0791 16.1389 67.2246 16.1389L46.6778 16.1289C45.5318 16.1289 44.5718 17.0587 44.416 18.1745C44.2451 19.4009 45.2202 20.8283 46.5672 20.8283H67.6217C68.5616 20.8283 69.2703 20.009 69.5417 19.4109C69.9186 18.6017 69.7427 17.6719 69.2351 17.0587Z" fill="#1D7FD8"/>
</svg>
