<svg width="75" height="50" viewBox="0 0 75 50" fill="none" xmlns="http://www.w3.org/2000/svg">
<path d="M24.8932 45.6451L14.1079 49.8281C13.9664 49.8854 13.8197 49.9271 13.673 49.9531C13.6258 49.9635 13.5786 49.9635 13.5315 49.9687C13.4319 49.9844 13.3376 49.9948 13.238 50C13.1489 50 13.0598 49.9896 12.9707 49.9844C12.9236 49.9844 12.8816 49.9844 12.8345 49.974C12.6982 49.9479 12.5672 49.9167 12.4309 49.8646L1.35746 45.6295C0.60805 45.343 0.00537652 44.7022 0.000135882 43.7594V29.408C-0.0103454 28.5485 0.587088 27.9025 1.25265 27.6473L11.8754 23.5997C11.9802 23.5372 12.0798 23.4904 12.1846 23.4435C12.2213 23.4278 12.2528 23.4174 12.2894 23.407C12.3576 23.381 12.4309 23.3549 12.4991 23.3341C12.541 23.3237 12.5829 23.3184 12.6248 23.308C12.6877 23.2924 12.7506 23.2768 12.8135 23.2716C12.8607 23.2664 12.9026 23.2664 12.9498 23.2611C13.0074 23.2611 13.0703 23.2507 13.1279 23.2507C13.1856 23.2507 13.2432 23.2507 13.3009 23.2559C13.3271 23.2559 13.3481 23.2559 13.3743 23.2559C13.7516 23.5685 14.1866 23.829 14.6844 24.0217L18.1537 25.3552L5.30367 30.0227V34.6954L8.74153 36.0289L8.75725 31.5855L21.6964 26.7201L25.5168 28.1891C25.674 28.2516 25.8313 28.2984 25.9885 28.3453C26.2348 28.71 26.3815 29.1892 26.3815 29.6685V43.6604C26.3815 44.7387 25.7264 45.3221 24.8827 45.6503L24.8932 45.6451ZM28.0743 26.147C28.0428 26.1575 28.0166 26.1627 27.9904 26.1731C27.9328 26.1887 27.8699 26.2096 27.8122 26.22C27.7808 26.2304 27.7441 26.2356 27.7127 26.2408C27.6602 26.2512 27.6078 26.2617 27.5554 26.2669C27.524 26.2669 27.4978 26.2721 27.4716 26.2773C27.4663 26.2773 27.4611 26.2773 27.4506 26.2773C27.4035 26.2773 27.351 26.2877 27.3039 26.2877C27.2777 26.2877 27.2515 26.2877 27.22 26.2877C27.0943 26.2877 26.9632 26.2721 26.8322 26.246C26.8165 26.246 26.7955 26.2356 26.7798 26.2356C26.6383 26.2043 26.4968 26.1627 26.3448 26.1054L15.5124 21.9432C14.6897 21.6255 14.1079 21.0056 14.1079 19.9689V6.36769C14.1079 5.60194 14.4224 4.71117 15.1404 4.44029L26.6907 0.0853909C26.8479 0.0437172 26.9999 0.0228804 27.1467 0.0072528C27.1833 0.0072528 27.2253 0.0020436 27.262 0.0020436C27.4035 -0.00316561 27.545 0.0020436 27.6864 0.012462C27.6864 0.012462 27.6917 0.012462 27.6969 0.012462C27.8437 0.0280896 27.9852 0.0593449 28.1267 0.0958093C28.1633 0.106228 28.2 0.116646 28.2315 0.127065C28.373 0.168738 28.5092 0.210412 28.6507 0.267713L32.5969 1.80443L28.2839 3.42449L19.3905 6.69066L19.38 11.2956L22.8179 12.6656L22.8493 8.20133L32.3139 4.69033L36.2392 3.2578L38.9905 4.28922C39.829 4.60177 40.4369 5.24251 40.4369 6.2583V20.0783C40.4369 21.0212 39.7871 21.6723 39.0377 21.9588L28.352 26.0481C28.2577 26.0845 28.1633 26.1158 28.0743 26.147ZM53.6853 45.4055L42.5699 49.7187C42.4651 49.7604 42.3655 49.7916 42.2712 49.8229C42.2397 49.8333 42.2083 49.8385 42.1768 49.8489C42.1087 49.8698 42.0458 49.8854 41.9777 49.901C41.941 49.9114 41.9043 49.9166 41.8676 49.9219C41.81 49.9323 41.7523 49.9427 41.6894 49.9531C41.6528 49.9583 41.6108 49.9635 41.5742 49.9635C41.5165 49.9687 41.4589 49.974 41.4012 49.974C41.3698 49.974 41.3331 49.974 41.3016 49.974C41.1654 49.974 41.0344 49.9583 40.8929 49.9323C40.8719 49.9323 40.8457 49.9219 40.8247 49.9167C40.678 49.8854 40.5313 49.8437 40.374 49.7864L29.1329 45.4263C28.8394 45.3117 28.6298 45.1033 28.4778 44.8481C28.5826 44.4678 28.6455 44.0667 28.6455 43.6448V29.6528C28.6455 29.2309 28.5826 28.8194 28.4778 28.4235C28.504 28.387 28.5302 28.3505 28.5564 28.3193C28.7817 28.2568 28.9914 28.1838 29.1591 28.1213L39.8447 24.0321C40.3426 23.8394 40.7828 23.5685 41.1706 23.2455C41.2021 23.2455 41.2283 23.2455 41.2597 23.2403C41.2807 23.2403 41.3016 23.2403 41.3226 23.2403C41.4955 23.2403 41.6737 23.2611 41.8467 23.2924C41.8571 23.2924 41.8676 23.2976 41.8833 23.3028C42.0668 23.3393 42.2502 23.3914 42.4336 23.4643L46.7833 25.1208L33.3987 30.0592L33.3778 34.7058L36.8419 36.0654L36.8576 31.5229L50.3732 26.5325L53.0669 27.5275C53.8477 27.814 54.6443 28.4391 54.6443 29.5382V43.6552C54.6495 44.3115 54.2617 45.1659 53.6853 45.3899V45.4055ZM72.5568 36.1175L59.0255 36.1331H56.8978V31.0281L72.7612 31.0072C74.1395 31.0072 75.0304 32.4398 74.999 33.6014C74.9675 34.8725 73.9561 36.1227 72.5621 36.1227L72.5568 36.1175ZM74.9832 24.0061C74.8313 25.5063 73.694 26.4075 72.1847 26.4075H55.4618C55.0112 26.0116 54.4766 25.673 53.8477 25.4438L53.1245 25.1781L53.1612 25.1625L47.5904 23.0424L43.5237 21.4952C43.8014 21.339 44.1159 21.2452 44.467 21.2452L72.7874 21.2348C74.2233 21.2348 75.0985 22.8861 74.9832 24.0061ZM72.6459 16.6142L45.0539 16.6507C44.0477 16.6507 43.1883 16.2235 42.6904 15.489V12.5927C43.1306 11.9415 43.8695 11.4727 44.75 11.4727H72.5883C73.977 11.4727 74.9623 12.7333 74.9937 13.9731C75.0252 15.1713 74.108 16.609 72.6459 16.609V16.6142ZM72.6354 6.86257L44.6452 6.8782C43.7647 6.8782 43.0573 6.35207 42.638 5.66966C42.5751 5.1852 42.4389 4.72679 42.224 4.31006C42.224 4.22671 42.224 4.13815 42.2345 4.05481C42.4126 2.41912 43.6966 1.66378 45.2531 1.66378L72.5935 1.70024C73.998 1.70024 74.9623 2.95045 74.999 4.21629C75.0356 5.38836 74.0976 6.85736 72.6354 6.86257Z" fill="#1D7FD8"/>
</svg>
