<svg width="48" height="50" viewBox="0 0 48 50" fill="none" xmlns="http://www.w3.org/2000/svg">
<path d="M36.1274 0.689531C35.3121 0.26172 34.542 0 33.6159 0L11.5006 0.0100662C11.0426 0.0100662 10.5493 0.0503308 10.1366 0.0855623C7.50935 0.32715 5.83333 2.6323 5.83333 5.16394L5.86353 38.7748C5.86353 41.2008 7.71571 43.2945 10.1215 43.4757C10.8312 43.5311 11.4855 43.516 12.2253 43.516L28.4822 43.5311C28.3714 42.6151 28.4016 41.8098 28.3714 40.9541C28.3312 39.6355 28.8446 38.4678 30.0575 37.8336C30.3796 37.6625 30.9031 37.3958 31.2755 37.3958L34.2048 37.3706C34.2299 36.5502 34.2551 35.8556 34.2249 35.0705C34.1494 33.3089 35.3272 31.799 37.1189 31.5524C37.5568 31.4869 38.035 31.5071 38.5634 31.4668V4.89215C38.5634 3.14064 37.6323 1.47972 36.1274 0.689531ZM11.405 12.3914C11.5408 12.2656 11.8982 12.0592 12.1297 12.0592H32.0758C32.8257 12.0542 33.3039 12.623 33.3391 13.2521C33.3743 13.8158 32.9968 14.5959 32.2519 14.5959L12.014 14.606C11.8479 14.606 11.5106 14.4047 11.415 14.3141C10.952 13.8611 10.8614 12.8746 11.405 12.3914ZM33.1831 19.5636C32.8912 20.0669 32.262 20.2279 31.6983 20.1675C31.3158 20.1222 30.9333 20.238 30.5407 20.238L18.5419 20.2279L13.7403 20.2078C13.1867 20.2078 12.6028 20.3135 12.0844 20.1826C11.3647 20.0014 10.9822 19.4528 11.0375 18.7532C11.0828 18.1593 11.5811 17.6007 12.3159 17.6007H32.1513C32.6194 17.6007 33.017 17.9681 33.178 18.2449C33.3945 18.6173 33.3945 19.1911 33.1831 19.5636ZM23.0364 31.3007C21.6473 31.4467 20.2883 31.341 18.8891 31.341H12.5676C11.8479 31.346 11.1684 31.0591 11.0426 30.3092C10.9469 29.7354 11.2489 28.7892 12.0391 28.7892L22.8552 28.754C23.5749 28.754 24.048 29.2573 24.1537 29.9267C24.2343 30.4501 23.7863 31.2252 23.0364 31.3007ZM32.3727 25.7241L12.1347 25.7341C11.415 25.7341 11.0375 25.0194 11.0325 24.4557C11.0275 23.8467 11.4754 23.1823 12.2153 23.1823H32.1714C32.8358 23.1823 33.2888 23.7712 33.3441 24.2947C33.4045 24.808 33.1025 25.7241 32.3727 25.7241ZM29.7304 45.0712L11.0426 45.1064C9.35145 45.1064 7.87676 44.6384 6.59333 43.5613C5.1891 42.3886 4.43917 40.7428 4.34354 38.8352L4.31335 38.1457C4.27811 37.4964 4.33851 35.453 4.27811 34.8943C4.21268 34.2702 4.26805 33.6562 4.29825 33.027C4.36871 31.3812 4.37374 29.7354 4.29321 28.0846C4.20765 26.3079 4.27811 25.0446 4.27811 23.2327V21.0634V18.3405V9.0545L4.24792 6.20075C2.10383 6.41717 0.337216 8.09822 0.0855623 10.2121C0.0452977 10.5393 0 10.8815 0 11.2338V44.8195C0.00503308 45.1467 0.0452977 45.4235 0.0805292 45.7758C0.301985 48.0004 2.28502 49.9231 4.61533 49.9231L27.5611 49.9331C29.7807 49.9331 32.0104 47.9249 32.0909 45.6953C31.1245 45.806 30.4451 45.5745 29.7304 45.0712ZM45.1064 38.8151L41.1555 38.8251C41.1555 37.3253 41.2712 35.8707 41.1102 34.386C41.0196 33.5303 40.1186 32.9918 39.3436 32.9717L37.4461 32.9868C36.3338 33.0572 35.7046 33.938 35.7197 34.9849L35.7751 38.8251L31.5574 38.8553C30.742 38.8604 30.123 39.5096 29.9116 40.2344V42.8466C30.1028 43.7374 30.9232 44.2407 31.8141 44.2407H35.7348L35.755 48.3628C35.76 49.153 36.364 49.8174 37.0686 49.9986C38.0199 49.9835 38.9258 50.0288 39.8469 49.9633C40.7126 49.9029 41.1957 48.9668 41.1957 48.1615L41.1756 44.2458H45.2977C45.8413 44.2407 46.3546 43.9136 46.7321 43.5663L47.1096 42.7409L47.1247 40.4357C46.9586 39.409 46.1181 38.81 45.1064 38.8151Z" fill="#1D7FD8"/>
</svg>
