<svg width="20" height="20" viewBox="0 0 20 20" fill="none" xmlns="http://www.w3.org/2000/svg">
<path d="M15 0H4.96875C3.89062 0 3 0.890625 3 1.96875V3.98438C3 5.0625 3.89062 6 4.96875 6H15C16.0781 6 16.9688 5.0625 16.9688 3.98438V1.96875C16.9688 0.890625 16.0781 0 15 0V0M14.4844 3.98438H5.48438C5.20312 3.98438 4.96875 3.75 4.96875 3.46875V2.48438C4.96875 2.20312 5.20312 1.96875 5.48438 1.96875H14.4844C14.7656 1.96875 15 2.20312 15 2.48438V3.46875C15 3.75 14.7656 3.98438 14.4844 3.98438V3.98438M18 19.9688H1.96875C0.890625 19.9688 0 19.0781 0 18V16.9688H19.9688V18C19.9688 19.0781 19.0781 19.9688 18 19.9688V19.9688M16.5 8.15625C16.1719 7.45312 15.4688 6.98438 14.6719 6.98438H5.29688C4.5 6.98438 3.79688 7.45312 3.46875 8.15625L0 15.9844H19.9688L16.5 8.15625V8.15625M7.5 13.9688H6.46875C6.1875 13.9688 6 13.7812 6 13.5C6 13.2188 6.1875 12.9844 6.46875 12.9844H7.5C7.78125 12.9844 7.96875 13.2188 7.96875 13.5C7.96875 13.7812 7.78125 13.9688 7.5 13.9688V13.9688M7.5 12H6.46875C6.1875 12 6 11.7656 6 11.4844C6 11.2031 6.1875 10.9688 6.46875 10.9688H7.5C7.78125 10.9688 7.96875 11.2031 7.96875 11.4844C7.96875 11.7656 7.78125 12 7.5 12V12M7.5 9.98438H6.46875C6.1875 9.98438 6 9.75 6 9.46875C6 9.1875 6.1875 9 6.46875 9H7.5C7.78125 9 7.96875 9.1875 7.96875 9.46875C7.96875 9.75 7.78125 9.98438 7.5 9.98438V9.98438M10.5 13.9688H9.46875C9.1875 13.9688 9 13.7812 9 13.5C9 13.2188 9.1875 12.9844 9.46875 12.9844H10.5C10.7812 12.9844 10.9688 13.2188 10.9688 13.5C10.9688 13.7812 10.7812 13.9688 10.5 13.9688V13.9688M10.5 12H9.46875C9.1875 12 9 11.7656 9 11.4844C9 11.2031 9.1875 10.9688 9.46875 10.9688H10.5C10.7812 10.9688 10.9688 11.2031 10.9688 11.4844C10.9688 11.7656 10.7812 12 10.5 12V12M10.5 9.98438H9.46875C9.1875 9.98438 9 9.75 9 9.46875C9 9.1875 9.1875 9 9.46875 9H10.5C10.7812 9 10.9688 9.1875 10.9688 9.46875C10.9688 9.75 10.7812 9.98438 10.5 9.98438V9.98438M13.5 13.9688H12.4688C12.1875 13.9688 12 13.7812 12 13.5C12 13.2188 12.1875 12.9844 12.4688 12.9844H13.5C13.7812 12.9844 13.9688 13.2188 13.9688 13.5C13.9688 13.7812 13.7812 13.9688 13.5 13.9688V13.9688M13.5 12H12.4688C12.1875 12 12 11.7656 12 11.4844C12 11.2031 12.1875 10.9688 12.4688 10.9688H13.5C13.7812 10.9688 13.9688 11.2031 13.9688 11.4844C13.9688 11.7656 13.7812 12 13.5 12V12M13.5 9.98438H12.4688C12.1875 9.98438 12 9.75 12 9.46875C12 9.1875 12.1875 9 12.4688 9H13.5C13.7812 9 13.9688 9.1875 13.9688 9.46875C13.9688 9.75 13.7812 9.98438 13.5 9.98438V9.98438" fill="#10B981"/>
</svg>
