<svg width="23" height="17" viewBox="0 0 23 17" fill="none" xmlns="http://www.w3.org/2000/svg">
<path d="M14.0156 8.01562C16.2188 8.01562 18 6.23438 18 4.03125C18 1.82812 16.2188 0 14.0156 0C11.8125 0 10.0312 1.82812 10.0312 4.03125C10.0312 6.23438 11.8125 8.01562 14.0156 8.01562V8.01562M5.01562 6V4.03125C5.01562 3.46875 4.54688 3 4.03125 3C3.46875 3 3 3.46875 3 4.03125V6H1.03125C0.46875 6 0 6.46875 0 7.03125C0 7.54688 0.46875 8.01562 1.03125 8.01562H3V10.0312C3 10.5469 3.46875 11.0156 4.03125 11.0156C4.54688 11.0156 5.01562 10.5469 5.01562 10.0312V8.01562H7.03125C7.54688 8.01562 8.01562 7.54688 8.01562 7.03125C8.01562 6.46875 7.54688 6 7.03125 6H5.01562V6M14.0156 10.0312C11.3438 10.0312 6 11.3438 6 14.0156V15C6 15.5625 6.46875 16.0312 7.03125 16.0312H21C21.5625 16.0312 22.0312 15.5625 22.0312 15V14.0156C22.0312 11.3438 16.6875 10.0312 14.0156 10.0312V10.0312" fill="#1D7AE2"/>
</svg>
