<svg width="20" height="21" viewBox="0 0 20 21" fill="none" xmlns="http://www.w3.org/2000/svg">
<path d="M2.01562 4.03125H3.98438V5.01562C3.98438 6.09375 4.92188 7.03125 6 7.03125H12C13.0781 7.03125 14.0156 6.09375 14.0156 5.01562V4.03125H15.9844V9H18V4.03125C18 2.90625 17.1094 2.01562 15.9844 2.01562H11.8125C11.3906 0.84375 10.3125 0 9 0C7.6875 0 6.60938 0.84375 6.1875 2.01562H2.01562C0.890625 2.01562 0 2.90625 0 4.03125V18C0 19.125 0.890625 20.0156 2.01562 20.0156H8.01562V18H2.01562V4.03125V4.03125M9 2.01562C9.5625 2.01562 9.98438 2.48438 9.98438 3C9.98438 3.5625 9.5625 4.03125 9 4.03125C8.4375 4.03125 8.01562 3.5625 8.01562 3C8.01562 2.48438 8.4375 2.01562 9 2.01562V2.01562M18.75 11.25C18.3281 10.875 17.6719 10.875 17.25 11.25L12.5156 16.0312L10.2656 13.7812C9.84375 13.3594 9.1875 13.3594 8.76562 13.7812C8.34375 14.1562 8.34375 14.8594 8.76562 15.2812L11.8125 18.3281C12.1875 18.7031 12.7969 18.7031 13.2188 18.3281L18.75 12.75C19.1719 12.375 19.1719 11.6719 18.75 11.25V11.25" fill="#EF4444"/>
</svg>
