<svg width="60" height="50" viewBox="0 0 60 50" fill="none" xmlns="http://www.w3.org/2000/svg">
<path d="M36.2069 38.6603C35.7955 39.0145 35.535 39.5145 35.4882 40.0717L35.358 41.6394L35.2955 42.4883L35.1392 45.0507C35.1236 45.3059 35.1549 45.5559 35.2278 45.7902C35.134 45.9882 35.0767 46.2017 35.0455 46.4204L26.9312 49.5453C25.5667 50.0713 24.5251 50.1859 23.1345 49.6495L2.65614 41.7331C1.10412 41.129 0 39.9519 0 37.9728L0.0104163 12.1197C0.0104163 10.6614 0.593726 8.96879 1.94784 8.45319L23.8011 0.172267C25.1188 -0.181885 26.301 0.0472723 27.5093 0.521212L34.9622 3.44297L26.8114 6.52618L9.9996 12.7395L9.97877 21.4995L16.4785 24.1088L16.5306 15.6196L34.4153 8.94796L41.8369 6.2189L47.0346 8.18237C48.6179 8.7813 49.7689 9.98958 49.7689 11.927V21.1714C49.1803 21.4579 48.6491 21.8849 48.2481 22.4318L46.67 24.5671C46.5606 24.713 46.4721 24.8744 46.4044 25.0463C46.2169 25.1765 46.045 25.3327 45.9044 25.5202L36.561 37.9208C36.3892 38.1447 36.2694 38.3999 36.2017 38.6707L36.2069 38.6603ZM40.3369 40.7488L38.2276 39.1603L47.571 26.7598L49.6803 28.3482L40.3369 40.7488ZM50.7063 29.0565L53.3364 31.0408L43.9826 43.431L41.3525 41.4467L50.7063 29.0565ZM37.811 49.8734C37.7381 49.9047 37.6652 49.9307 37.5923 49.9515C37.5714 49.9567 37.5506 49.962 37.5298 49.9672C37.4777 49.9828 37.4256 49.988 37.3735 49.9932C37.3475 49.9932 37.3162 49.9932 37.2902 49.9932C37.2798 49.9932 37.2641 49.9932 37.2537 49.9932C37.2069 49.9828 37.1652 49.9724 37.1339 49.9463C36.9621 49.8057 36.8371 49.4984 36.8579 49.2849L37.0037 47.7745L37.1079 46.6912L40.1234 48.9672L37.8162 49.8734H37.811ZM43.4514 47.6235L41.5192 48.3891L40.5817 47.66L37.2173 45.1757L37.3735 42.6341L37.436 41.8008L37.5662 40.2332L43.6649 44.7226L46.144 46.5923L43.4514 47.6183V47.6235ZM47.1075 45.7225L44.993 44.1236L54.3416 31.7596L56.4561 33.3584L47.1075 45.7225ZM58.7372 30.2179L57.4196 31.9835C57.4196 31.9835 57.3883 32.02 57.3623 32.046C57.3571 32.0512 57.3467 32.0616 57.3363 32.0668C57.3206 32.0825 57.2998 32.0981 57.2842 32.1137C57.2738 32.1241 57.2633 32.1293 57.2529 32.1345C57.2373 32.145 57.2165 32.1554 57.2009 32.1658C57.1904 32.1658 57.18 32.171 57.1696 32.1762C57.1488 32.1814 57.1331 32.1866 57.1175 32.1866C57.0342 32.1658 56.904 32.0772 56.7894 31.9887L48.3418 25.7962L49.9199 23.6609C50.0084 23.5411 50.1126 23.437 50.222 23.338C50.2532 23.3068 50.2897 23.2859 50.3261 23.2599C50.4095 23.1974 50.4928 23.1401 50.5813 23.0932C50.623 23.0724 50.6594 23.0516 50.7011 23.0307C50.8053 22.9839 50.9094 22.9422 51.0188 22.9162C51.0448 22.9109 51.0709 22.8953 51.0969 22.8901C51.2323 22.8589 51.3678 22.8432 51.5084 22.8432C51.6073 22.8432 51.7115 22.8432 51.8104 22.8589C51.8313 22.8589 51.8469 22.8693 51.8677 22.8693C51.9563 22.8849 52.0396 22.9057 52.1281 22.937C52.1542 22.9474 52.1854 22.9578 52.2115 22.9682C52.3156 23.0047 52.4146 23.0516 52.5135 23.1089L58.6227 27.6399C59.4403 28.2441 59.2789 29.5096 58.7425 30.2232L58.7372 30.2179Z" fill="#1D7FD8"/>
</svg>
