<svg width="78" height="50" viewBox="0 0 78 50" fill="none" xmlns="http://www.w3.org/2000/svg">
<path d="M21.6664 0C27.9133 0 32.9847 5.06402 32.9847 11.3183C32.9847 17.5725 27.9207 22.6365 21.6664 22.6365C15.4122 22.6365 10.3481 17.5725 10.3481 11.3183C10.3481 5.06402 15.4122 0 21.6664 0ZM41.4789 47.38C40.1187 48.038 38.6845 48.4667 37.169 48.7551C29.2587 50.2927 18.798 50.2484 10.7843 49.4721C7.98986 49.1986 4.00518 48.5628 1.58775 47.2395C0.501023 46.6407 -0.0977882 45.5392 0.0131028 44.2603C0.360561 40.1943 2.33442 36.18 5.02537 33.1268C12.4846 24.6621 25.5106 23.4054 34.7294 29.9479C39.3868 33.2525 42.7135 38.4422 43.3123 44.179C43.4602 45.5984 42.7431 46.7664 41.4789 47.38ZM74.9162 38.7379L59.9386 38.7527L47.8958 38.7305C46.4394 38.7305 45.4119 37.3481 45.3305 36.047C45.2566 34.7828 46.1955 33.0751 47.6962 33.0751L75.138 33.0381C76.6609 33.0381 77.6516 34.6349 77.6146 35.9287C77.5776 37.3481 76.4613 38.7379 74.9162 38.7379ZM77.6072 25.2462C77.4372 26.9169 76.1804 27.9223 74.5096 27.9223H44.473C42.8614 27.9297 41.6046 26.9391 41.3902 25.3866C41.198 24.0264 42.1665 22.1708 43.8224 22.1708L75.175 22.156C76.7644 22.156 77.7329 23.9968 77.6072 25.2462ZM75.0197 17.0107L44.473 17.055C42.8022 17.055 41.4863 16.0053 41.3532 14.3271C41.2424 12.8412 42.4474 11.2887 44.1329 11.2887H74.9606C76.4983 11.2887 77.585 12.6933 77.622 14.0758C77.6589 15.4138 76.6461 17.0107 75.0197 17.0107ZM75.0123 6.15075L44.022 6.17293C42.3365 6.17293 41.2054 4.41346 41.3532 3.03102C41.5529 1.21241 42.9723 0.369637 44.6948 0.369637L74.9606 0.4066C76.5131 0.4066 77.5776 1.79643 77.622 3.20845C77.6589 4.51696 76.624 6.15075 75.005 6.15075H75.0123Z" fill="#1D7FD8"/>
</svg>
