<svg width="75" height="50" viewBox="0 0 75 50" fill="none" xmlns="http://www.w3.org/2000/svg">
<path d="M66.8106 9.74926C66.2839 9.61761 65.7769 9.63735 65.1976 9.67027V14.331C65.6453 14.4034 66.0732 14.5548 66.4682 14.7852C66.5077 14.8115 66.5472 14.8378 66.5867 14.8642L68.6803 16.4243C68.6869 14.5219 68.6869 13.3238 68.6869 13.304C68.7461 11.7834 68.5552 10.1772 66.8106 9.74926ZM63.0777 6.82646C63.025 5.98385 62.202 5.25315 61.5173 5.003C60.8787 4.7726 60.2335 4.80551 59.6278 4.90426V18.3202L61.4647 15.8516C61.8992 15.2657 62.4785 14.8247 63.1237 14.5614C63.1172 10.3812 63.104 7.21485 63.0777 6.82646ZM59.6344 20.6308L59.5423 20.5584L57.6659 23.0401L50.6544 32.3483L49.1401 34.3561L47.6983 36.2717L50.3713 38.2861L62.2152 22.5727L59.6344 20.6308ZM65.2042 24.7451L63.5122 23.468L63.1369 23.9683L59.641 28.5961L55.2892 34.3561L52.5373 38.003L51.6617 39.1682L54.993 41.6829L66.8435 25.9827L65.2042 24.7451ZM55.3419 0H2.09362C1.15216 0 0.362128 0.645124 0.125118 1.50748C0.0526982 1.71155 2.9243e-05 1.9222 2.9243e-05 2.14602V30.0312C-0.00655437 31.2556 1.09949 32.3483 2.32405 32.3483H49.0019L57.6659 20.8546V2.31718C57.6725 1.09276 56.5665 0 55.3419 0ZM53.2286 23.4417C50.9243 23.6589 49.1862 25.4692 48.969 27.7732C48.9229 28.3064 48.5542 28.6027 48.0012 28.6027H9.7372C9.11834 28.6027 8.83524 28.1419 8.77599 27.635C8.69699 27.0096 8.49948 26.4237 8.21638 25.9037C8.11763 25.7062 8.00571 25.5087 7.87403 25.3178C6.09646 22.7571 4.27938 23.7708 3.80536 22.9216C3.77244 22.8361 3.74611 22.7439 3.74611 22.6452L3.72636 9.49911C3.83169 9.18972 4.08846 8.93957 4.43739 8.90665C6.74165 8.68942 8.47973 6.87912 8.69699 4.57511C8.74307 4.0419 9.11175 3.74567 9.66478 3.74567H47.9288C48.5476 3.74567 48.8307 4.20647 48.89 4.71335C48.969 5.34531 49.1665 5.9246 49.4496 6.44465C49.5483 6.64872 49.6602 6.83963 49.7919 7.03053C51.5695 9.59128 53.3866 8.58409 53.8606 9.4267C53.8935 9.51228 53.9198 9.60444 53.9198 9.70318L53.9396 22.8492C53.8343 23.1652 53.5775 23.4088 53.2286 23.4417ZM51.8987 11.3094V10.9013C51.8987 10.9013 51.8789 10.9013 51.8658 10.9013C51.8592 10.8289 51.8658 10.7564 51.8526 10.684C49.4101 10.0192 47.6391 8.21545 47.0531 5.74687H17.4071V5.76661H10.5009C9.90179 8.26811 8.11763 10.0587 5.67511 10.7433L5.68827 20.7493C5.68169 20.8612 5.68169 20.9797 5.68827 21.0916V21.4997C5.68827 21.4997 5.70802 21.5063 5.72119 21.5129C5.72778 21.5787 5.72119 21.6511 5.73436 21.7235C8.17688 22.3884 9.94787 24.1921 10.5338 26.6607H40.1798C40.1798 26.6607 40.1798 26.6541 40.1864 26.6476H47.0861C47.6852 24.1395 49.4693 22.3489 51.9118 21.6643L51.8987 11.6583C51.9053 11.5464 51.9053 11.4279 51.8987 11.316V11.3094ZM34.5969 22C33.109 23.4812 31.0615 24.3962 28.7968 24.3962C24.2672 24.3962 20.5936 20.7229 20.5936 16.1939C20.5936 13.9294 21.5087 11.8821 22.9966 10.401C24.4779 8.91324 26.5254 7.99821 28.7902 7.99821C33.3197 7.99821 36.9934 11.6715 36.9934 16.2005C36.9934 18.465 36.0782 20.5123 34.5969 22ZM8.12421 40.0306C8.09129 40.5704 8.07813 40.9193 8.09129 41.4261C8.11763 42.4926 9.01958 43.6643 10.2705 43.6643H45.111L45.3019 40.577L45.3414 40.0372H8.12421V40.0306ZM4.10162 34.3561C4.0687 34.8959 4.05554 35.2382 4.06212 35.7583C4.07529 36.8247 4.99041 38.0096 6.23471 38.0096H45.506V37.8319C45.506 37.3777 45.6311 36.93 45.8747 36.5482C46.1578 36.1006 46.5264 35.6332 46.645 35.4752L47.4942 34.3561H4.10162ZM46.2763 45.8104L46.1446 47.1796L45.9668 49.0952V49.1545C45.9668 49.4178 46.1117 49.7667 46.3158 49.9312C46.3553 49.9642 46.4079 49.9839 46.4672 49.9905C46.4804 49.9971 46.4935 49.9971 46.5133 49.9971C46.5462 50.0037 46.5791 49.9971 46.6186 49.9971C46.6779 49.9905 46.7437 49.9773 46.8161 49.9642C46.8425 49.9576 46.8688 49.951 46.8951 49.9444C46.9873 49.9115 47.0861 49.8786 47.1782 49.8457L50.1013 48.6937L46.2763 45.8104ZM55.0391 43.6643L54.5848 43.322L50.1211 40.0372L47.3626 38.003L46.8556 37.6344L46.8293 38.003L46.6976 39.6224L46.6647 40.0372L46.6186 40.6757L46.4343 43.6643L46.4211 43.8947L50.6807 47.0414L51.8723 47.963L54.3214 46.9953L57.7318 45.6919L55.0391 43.6643ZM61.3001 43.6643H66.6196C67.752 43.6643 68.6671 42.7493 68.6671 41.6171C68.6671 39.8397 68.6671 37.0551 68.6671 33.9216L61.2935 43.6643H61.3001ZM68.6737 27.3058L68.1273 26.8911L65.2042 30.7487L63.1303 33.4872L59.72 38.003L58.1794 40.0372L56.2768 42.5584L58.9563 44.5859L70.8068 28.9186L68.6737 27.3058ZM73.539 21.6643L68.6803 18.0635L65.8033 15.924C65.6058 15.8121 65.4083 15.7265 65.1976 15.6673V15.6805C65.1252 15.6607 65.0527 15.6344 64.9803 15.6212C64.954 15.6212 64.9342 15.6146 64.9079 15.608C64.7828 15.5949 64.6511 15.5883 64.526 15.5883C64.3483 15.5883 64.1771 15.608 64.0059 15.6475C63.973 15.6607 63.9401 15.6739 63.9072 15.6805C63.7689 15.7199 63.6373 15.766 63.5056 15.8319C63.4529 15.8516 63.4068 15.8845 63.3542 15.9109C63.0382 16.0886 62.7551 16.3256 62.5246 16.635L60.5232 19.334L71.2216 27.1808C71.373 27.2927 71.531 27.4046 71.6364 27.4309C71.6561 27.4309 71.6824 27.4309 71.7088 27.4178C71.7219 27.4178 71.7285 27.4177 71.7483 27.4112C71.768 27.398 71.7878 27.3848 71.8141 27.3717C71.8273 27.3585 71.8404 27.3519 71.8536 27.3453C71.88 27.3256 71.8997 27.3058 71.9194 27.2861C71.9326 27.2795 71.9458 27.2663 71.9524 27.2598C71.9787 27.2334 72.005 27.2071 72.0182 27.1873H72.0248L73.6904 24.9426C74.0328 24.4884 74.2501 23.863 74.2566 23.2508C74.2632 22.6452 74.0591 22.0527 73.539 21.6643Z" fill="white"/>
</svg>
