<svg width="81" height="50" viewBox="0 0 81 50" fill="none" xmlns="http://www.w3.org/2000/svg">
<path d="M77.7778 23.8152C77.475 23.3676 77.1525 22.9397 76.8102 22.525C76.4679 22.1103 76.1059 21.7088 75.7241 21.327C75.3423 20.9452 74.9474 20.5898 74.5327 20.2475C73.4992 19.3918 72.3539 18.6546 71.1296 18.0687C70.9058 17.9568 70.6688 17.8515 70.4384 17.7528C68.411 16.8905 66.1862 16.41 63.8494 16.41C59.4984 16.41 55.5358 18.0621 52.554 20.7741C52.3565 20.9518 52.1656 21.1427 51.9748 21.327C51.2112 22.0906 50.5266 22.92 49.921 23.8152C49.6182 24.2628 49.3418 24.7235 49.0785 25.1975C48.5651 26.1519 48.1372 27.159 47.8081 28.2122C47.3144 29.792 47.0511 31.4639 47.0511 33.2083C47.0511 34.9526 47.3144 36.6245 47.8081 38.2043C48.1372 39.2509 48.5651 40.258 49.0785 41.2125C49.4669 41.93 49.9079 42.608 50.3884 43.253C50.7109 43.6875 51.0532 44.1022 51.4152 44.4971C51.7773 44.8986 52.1591 45.2804 52.554 45.6424C53.752 46.722 55.1014 47.6369 56.5693 48.3478C56.8128 48.4663 57.063 48.5782 57.3131 48.6835C57.8134 48.8942 58.3268 49.085 58.8534 49.2496C59.38 49.4142 59.9197 49.5524 60.4661 49.6643C61.2823 49.8289 62.1248 49.9408 62.9871 49.9803C63.2702 49.9934 63.5598 50 63.8494 50C73.124 50 80.6477 42.4829 80.6477 33.2083C80.6477 29.7262 79.588 26.4942 77.7778 23.8152ZM58.7415 13.0003C49.4603 13.0003 41.9432 20.524 41.9432 29.7986C41.9432 34.6761 44.0232 39.0666 47.3407 42.134C45.8992 39.4747 45.0764 36.4337 45.0764 33.2083C45.0764 22.8541 53.5019 14.4352 63.8494 14.4352C64.4879 14.4352 65.1132 14.4681 65.732 14.5274C63.6059 13.5532 61.2362 13.0003 58.7415 13.0003ZM42.9305 40.0342H8.12273C8.08981 40.5674 8.07665 40.9163 8.08981 41.4231C8.11614 42.4895 9.01793 43.6611 10.2686 43.6611H45.9979C44.8328 42.4566 43.7928 41.3573 42.9305 40.0342ZM40.4424 34.3536H4.10087C4.06796 34.8934 4.05479 35.2357 4.06138 35.7557C4.07454 36.822 4.9895 38.0068 6.23357 38.0068H41.7391L40.4424 34.3536ZM51.8431 10.6767C49.401 10.0118 47.6304 8.20827 47.0445 5.73986L10.499 5.75961C9.89998 8.26093 8.11614 10.0513 5.67407 10.7359L5.68723 21.4916C8.21488 22.1037 10.0316 24.039 10.5516 26.6522H40.1725C41.3573 20.004 45.8136 14.7775 51.8431 12.2959C51.9221 11.7364 51.9221 11.223 51.8431 10.6767ZM28.7849 24.401C24.2562 24.401 20.5832 20.728 20.5832 16.1993C20.5832 11.6706 24.2562 7.99763 28.7849 7.99763C33.3136 7.99763 36.9866 11.6706 36.9866 16.1993C36.9866 20.728 33.3136 24.401 28.7849 24.401ZM57.5501 1.89573C57.4052 0.849131 56.3521 0 55.2396 0L2.35653 0.0131648C1.19803 0.0131648 2.92377e-05 0.921538 2.92377e-05 2.14587V30.029C-0.00655317 31.2533 1.09929 32.346 2.32362 32.346H40.054L39.9487 28.7454H9.78808C9.143 28.7322 8.71514 28.3044 8.68223 27.758C8.62957 26.8562 8.37944 26.0532 7.87259 25.316C5.80572 22.3407 3.68618 24.1904 3.6796 22.3473V9.82754C3.67301 9.37335 3.96922 8.95208 4.43657 8.906C6.74042 8.68878 8.47818 6.87862 8.6954 4.57478C8.74147 4.0416 9.11009 3.74539 9.66301 3.74539H47.92C48.5387 3.74539 48.8218 4.20616 48.881 4.71301C49.1575 6.97736 50.9084 8.68878 53.1596 8.89942C53.594 8.93892 53.8968 9.2812 53.91 9.70248L53.9429 11.5982C55.2001 11.3283 56.2731 11.1506 57.6093 11.0321L57.6225 6.08215C57.6225 4.68009 57.7475 3.32412 57.5501 1.89573ZM63.0661 6.82596C63.0135 5.98341 62.1907 5.25276 61.5061 5.00263C60.8676 4.77225 60.2225 4.80516 59.6169 4.9039L59.6301 11.0058C60.8478 11.0979 61.8879 11.2559 63.1188 11.4995C63.1254 9.93944 63.1648 8.43207 63.0661 6.82596ZM66.7983 9.74855C66.2717 9.6169 65.7649 9.63665 65.1857 9.66956L65.2054 12.1314L68.6546 13.7309C68.7533 12.0985 68.7072 10.2159 66.7983 9.74855Z" fill="white"/>
</svg>
